<svg width="788" height="351" viewBox="0 0 788 351" fill="none" xmlns="http://www.w3.org/2000/svg">
<path d="M272.714 315.4C270.847 315.4 269.207 315.053 267.794 314.36C266.407 313.64 265.327 312.64 264.554 311.36C263.78 310.053 263.394 308.52 263.394 306.76V301.24C263.394 299.453 263.78 297.92 264.554 296.64C265.327 295.36 266.407 294.373 267.794 293.68C269.207 292.96 270.847 292.6 272.714 292.6C275.487 292.6 277.7 293.32 279.354 294.76C281.007 296.173 281.874 298.107 281.954 300.56H276.954C276.874 299.413 276.46 298.533 275.714 297.92C274.994 297.28 273.994 296.96 272.714 296.96C271.38 296.96 270.327 297.333 269.554 298.08C268.78 298.8 268.394 299.84 268.394 301.2V306.76C268.394 308.12 268.78 309.173 269.554 309.92C270.327 310.667 271.38 311.04 272.714 311.04C273.994 311.04 274.994 310.733 275.714 310.12C276.46 309.48 276.874 308.587 276.954 307.44H281.954C281.874 309.893 281.007 311.84 279.354 313.28C277.7 314.693 275.487 315.4 272.714 315.4Z" fill="white" style="mix-blend-mode:difference"/>
<path d="M294.578 315.36C292.711 315.36 291.085 315.013 289.698 314.32C288.338 313.6 287.271 312.6 286.498 311.32C285.751 310.013 285.378 308.48 285.378 306.72V301.28C285.378 299.52 285.751 298 286.498 296.72C287.271 295.413 288.338 294.413 289.698 293.72C291.085 293 292.711 292.64 294.578 292.64C296.471 292.64 298.098 293 299.458 293.72C300.818 294.413 301.871 295.413 302.618 296.72C303.391 298 303.778 299.507 303.778 301.24V306.72C303.778 308.48 303.391 310.013 302.618 311.32C301.871 312.6 300.818 313.6 299.458 314.32C298.098 315.013 296.471 315.36 294.578 315.36ZM294.578 311C295.911 311 296.938 310.64 297.658 309.92C298.405 309.173 298.778 308.107 298.778 306.72V301.28C298.778 299.867 298.405 298.8 297.658 298.08C296.938 297.36 295.911 297 294.578 297C293.271 297 292.245 297.36 291.498 298.08C290.751 298.8 290.378 299.867 290.378 301.28V306.72C290.378 308.107 290.751 309.173 291.498 309.92C292.245 310.64 293.271 311 294.578 311Z" fill="white" style="mix-blend-mode:difference"/>
<path d="M306.642 315V293H310.722V295.96H311.562L310.882 296.68C310.882 295.453 311.229 294.467 311.922 293.72C312.616 292.973 313.509 292.6 314.602 292.6C315.776 292.6 316.682 293.08 317.322 294.04C317.989 295 318.322 296.293 318.322 297.92L317.442 295.96H318.802L318.282 296.68C318.282 295.453 318.629 294.467 319.322 293.72C320.016 292.973 320.936 292.6 322.082 292.6C323.442 292.6 324.522 293.107 325.322 294.12C326.122 295.133 326.522 296.507 326.522 298.24V315H322.122V298.44C322.122 297.72 321.962 297.16 321.642 296.76C321.322 296.333 320.856 296.12 320.242 296.12C319.656 296.12 319.189 296.32 318.842 296.72C318.522 297.12 318.362 297.693 318.362 298.44V315H314.762V298.44C314.762 297.693 314.602 297.12 314.282 296.72C313.962 296.32 313.496 296.12 312.882 296.12C312.269 296.12 311.802 296.32 311.482 296.72C311.189 297.12 311.042 297.693 311.042 298.44V315H306.642Z" fill="white" style="mix-blend-mode:difference"/>
<path d="M329.587 315V310.44H337.267V297.52H330.587V293H342.067V310.44H348.867V315H329.587ZM339.267 289.32C338.254 289.32 337.453 289.067 336.867 288.56C336.28 288.027 335.987 287.32 335.987 286.44C335.987 285.56 336.28 284.867 336.867 284.36C337.453 283.827 338.254 283.56 339.267 283.56C340.28 283.56 341.08 283.827 341.667 284.36C342.254 284.867 342.547 285.56 342.547 286.44C342.547 287.32 342.254 288.027 341.667 288.56C341.08 289.067 340.28 289.32 339.267 289.32Z" fill="white" style="mix-blend-mode:difference"/>
<path d="M351.611 315V293H356.491V297.2H357.851L356.491 298.36C356.491 296.547 357.011 295.133 358.051 294.12C359.118 293.107 360.571 292.6 362.411 292.6C364.571 292.6 366.291 293.32 367.571 294.76C368.878 296.2 369.531 298.133 369.531 300.56V315H364.531V301.08C364.531 299.747 364.185 298.72 363.491 298C362.798 297.28 361.825 296.92 360.571 296.92C359.345 296.92 358.371 297.293 357.651 298.04C356.958 298.787 356.611 299.853 356.611 301.24V315H351.611Z" fill="white" style="mix-blend-mode:difference"/>
<path d="M376.596 322.2V318.04H383.116C384.236 318.04 385.076 317.76 385.636 317.2C386.196 316.667 386.476 315.893 386.476 314.88V313.24L386.556 309.12H385.476L386.556 308.04C386.556 309.827 386.022 311.227 384.956 312.24C383.916 313.227 382.502 313.72 380.716 313.72C378.476 313.72 376.689 312.96 375.356 311.44C374.049 309.92 373.396 307.867 373.396 305.28V301C373.396 298.44 374.049 296.4 375.356 294.88C376.689 293.36 378.476 292.6 380.716 292.6C382.502 292.6 383.916 293.107 384.956 294.12C386.022 295.107 386.556 296.493 386.556 298.28L385.476 297.2H386.556L386.436 293H391.436V315C391.436 317.213 390.702 318.96 389.236 320.24C387.769 321.547 385.756 322.2 383.196 322.2H376.596ZM382.396 309.4C383.676 309.4 384.662 309.027 385.356 308.28C386.076 307.507 386.436 306.44 386.436 305.08V301.24C386.436 299.88 386.076 298.827 385.356 298.08C384.662 297.307 383.676 296.92 382.396 296.92C381.116 296.92 380.129 297.293 379.436 298.04C378.742 298.787 378.396 299.853 378.396 301.24V305.08C378.396 306.467 378.742 307.533 379.436 308.28C380.129 309.027 381.116 309.4 382.396 309.4Z" fill="white" style="mix-blend-mode:difference"/>
<path d="M425.644 315.36C423.964 315.36 422.498 315.093 421.244 314.56C419.991 314.027 419.004 313.293 418.284 312.36C417.591 311.4 417.218 310.28 417.164 309H422.164C422.218 309.693 422.551 310.253 423.164 310.68C423.804 311.107 424.631 311.32 425.644 311.32H427.404C428.631 311.32 429.551 311.08 430.164 310.6C430.778 310.12 431.084 309.467 431.084 308.64C431.084 307.867 430.804 307.267 430.244 306.84C429.711 306.387 428.871 306.093 427.724 305.96L425.004 305.56C422.498 305.213 420.658 304.547 419.484 303.56C418.311 302.573 417.724 301.093 417.724 299.12C417.724 297.067 418.418 295.48 419.804 294.36C421.191 293.213 423.231 292.64 425.924 292.64H427.444C429.898 292.64 431.858 293.187 433.324 294.28C434.791 295.373 435.578 296.84 435.684 298.68H430.684C430.604 298.093 430.271 297.613 429.684 297.24C429.124 296.867 428.378 296.68 427.444 296.68H425.924C424.778 296.68 423.938 296.893 423.404 297.32C422.898 297.72 422.644 298.32 422.644 299.12C422.644 299.867 422.871 300.427 423.324 300.8C423.778 301.147 424.511 301.4 425.524 301.56L428.364 301.96C430.978 302.333 432.898 303.04 434.124 304.08C435.378 305.093 436.004 306.6 436.004 308.6C436.004 310.733 435.271 312.4 433.804 313.6C432.364 314.773 430.231 315.36 427.404 315.36H425.644Z" fill="white" style="mix-blend-mode:difference"/>
<path d="M448.469 315.36C446.602 315.36 444.975 315.013 443.589 314.32C442.229 313.6 441.162 312.6 440.389 311.32C439.642 310.013 439.269 308.48 439.269 306.72V301.28C439.269 299.52 439.642 298 440.389 296.72C441.162 295.413 442.229 294.413 443.589 293.72C444.975 293 446.602 292.64 448.469 292.64C450.362 292.64 451.989 293 453.349 293.72C454.709 294.413 455.762 295.413 456.509 296.72C457.282 298 457.669 299.507 457.669 301.24V306.72C457.669 308.48 457.282 310.013 456.509 311.32C455.762 312.6 454.709 313.6 453.349 314.32C451.989 315.013 450.362 315.36 448.469 315.36ZM448.469 311C449.802 311 450.829 310.64 451.549 309.92C452.295 309.173 452.669 308.107 452.669 306.72V301.28C452.669 299.867 452.295 298.8 451.549 298.08C450.829 297.36 449.802 297 448.469 297C447.162 297 446.135 297.36 445.389 298.08C444.642 298.8 444.269 299.867 444.269 301.28V306.72C444.269 308.107 444.642 309.173 445.389 309.92C446.135 310.64 447.162 311 448.469 311Z" fill="white" style="mix-blend-mode:difference"/>
<path d="M470.453 315.36C468.586 315.36 466.96 315.013 465.573 314.32C464.213 313.6 463.146 312.6 462.373 311.32C461.626 310.013 461.253 308.48 461.253 306.72V301.28C461.253 299.52 461.626 298 462.373 296.72C463.146 295.413 464.213 294.413 465.573 293.72C466.96 293 468.586 292.64 470.453 292.64C472.346 292.64 473.973 293 475.333 293.72C476.693 294.413 477.746 295.413 478.493 296.72C479.266 298 479.653 299.507 479.653 301.24V306.72C479.653 308.48 479.266 310.013 478.493 311.32C477.746 312.6 476.693 313.6 475.333 314.32C473.973 315.013 472.346 315.36 470.453 315.36ZM470.453 311C471.786 311 472.813 310.64 473.533 309.92C474.28 309.173 474.653 308.107 474.653 306.72V301.28C474.653 299.867 474.28 298.8 473.533 298.08C472.813 297.36 471.786 297 470.453 297C469.146 297 468.12 297.36 467.373 298.08C466.626 298.8 466.253 299.867 466.253 301.28V306.72C466.253 308.107 466.626 309.173 467.373 309.92C468.12 310.64 469.146 311 470.453 311Z" fill="white" style="mix-blend-mode:difference"/>
<path d="M483.517 315V293H488.397V297.2H489.757L488.397 298.36C488.397 296.547 488.917 295.133 489.957 294.12C491.024 293.107 492.477 292.6 494.317 292.6C496.477 292.6 498.197 293.32 499.477 294.76C500.784 296.2 501.437 298.133 501.437 300.56V315H496.437V301.08C496.437 299.747 496.091 298.72 495.397 298C494.704 297.28 493.731 296.92 492.477 296.92C491.251 296.92 490.277 297.293 489.557 298.04C488.864 298.787 488.517 299.853 488.517 301.24V315H483.517Z" fill="white" style="mix-blend-mode:difference"/>
<path d="M514.422 315.4C513.275 315.4 512.355 315.067 511.662 314.4C510.995 313.733 510.662 312.827 510.662 311.68C510.662 310.533 510.995 309.627 511.662 308.96C512.355 308.267 513.275 307.92 514.422 307.92C515.568 307.92 516.475 308.267 517.142 308.96C517.835 309.627 518.182 310.533 518.182 311.68C518.182 312.827 517.835 313.733 517.142 314.4C516.475 315.067 515.568 315.4 514.422 315.4Z" fill="white" style="mix-blend-mode:difference"/>
<path d="M313.759 347.8C312.745 347.8 311.852 347.6 311.079 347.2C310.319 346.8 309.725 346.24 309.299 345.52C308.872 344.8 308.659 343.96 308.659 343V340C308.659 339.04 308.872 338.2 309.299 337.48C309.725 336.76 310.319 336.2 311.079 335.8C311.852 335.4 312.745 335.2 313.759 335.2C314.785 335.2 315.679 335.4 316.439 335.8C317.199 336.2 317.792 336.76 318.219 337.48C318.645 338.2 318.859 339.04 318.859 340V343C318.859 343.96 318.645 344.8 318.219 345.52C317.792 346.24 317.199 346.8 316.439 347.2C315.679 347.6 314.785 347.8 313.759 347.8ZM313.759 346.8C314.559 346.8 315.259 346.647 315.859 346.34C316.459 346.02 316.925 345.573 317.259 345C317.592 344.427 317.759 343.76 317.759 343V340C317.759 339.24 317.592 338.58 317.259 338.02C316.925 337.447 316.459 337 315.859 336.68C315.259 336.36 314.559 336.2 313.759 336.2C312.959 336.2 312.259 336.36 311.659 336.68C311.059 337 310.592 337.447 310.259 338.02C309.925 338.58 309.759 339.24 309.759 340V343C309.759 343.76 309.925 344.427 310.259 345C310.592 345.573 311.059 346.02 311.659 346.34C312.259 346.647 312.959 346.8 313.759 346.8ZM313.859 345.1C313.072 345.1 312.439 344.88 311.959 344.44C311.479 343.987 311.239 343.4 311.239 342.68V340.32C311.239 339.6 311.479 339.02 311.959 338.58C312.439 338.127 313.072 337.9 313.859 337.9C314.632 337.9 315.259 338.127 315.739 338.58C316.219 339.02 316.459 339.6 316.459 340.32H314.919C314.919 339.987 314.819 339.727 314.619 339.54C314.432 339.34 314.179 339.24 313.859 339.24C313.539 339.24 313.279 339.34 313.079 339.54C312.879 339.727 312.779 339.987 312.779 340.32V342.68C312.779 343.013 312.879 343.28 313.079 343.48C313.279 343.667 313.539 343.76 313.859 343.76C314.179 343.76 314.432 343.667 314.619 343.48C314.819 343.28 314.919 343.013 314.919 342.68H316.459C316.459 343.4 316.219 343.987 315.739 344.44C315.272 344.88 314.645 345.1 313.859 345.1Z" fill="white" style="mix-blend-mode:difference"/>
<path d="M323.931 350.2C322.797 350.2 321.904 349.9 321.251 349.3C320.597 348.7 320.271 347.893 320.271 346.88C320.271 345.8 320.631 344.967 321.351 344.38C322.071 343.793 323.091 343.5 324.411 343.5H327.151V342.56C327.151 342.027 326.977 341.613 326.631 341.32C326.284 341.013 325.811 340.86 325.211 340.86C324.664 340.86 324.211 340.98 323.851 341.22C323.491 341.46 323.277 341.787 323.211 342.2H320.771C320.891 341.16 321.357 340.333 322.171 339.72C322.984 339.107 324.024 338.8 325.291 338.8C326.637 338.8 327.697 339.14 328.471 339.82C329.257 340.487 329.651 341.393 329.651 342.54V350H327.231V348.08H326.831L327.231 347.54C327.231 348.353 326.931 349 326.331 349.48C325.731 349.96 324.931 350.2 323.931 350.2ZM324.751 348.32C325.457 348.32 326.031 348.14 326.471 347.78C326.924 347.42 327.151 346.953 327.151 346.38V345.04H324.451C323.944 345.04 323.537 345.187 323.231 345.48C322.924 345.773 322.771 346.16 322.771 346.64C322.771 347.16 322.944 347.573 323.291 347.88C323.651 348.173 324.137 348.32 324.751 348.32Z" fill="white" style="mix-blend-mode:difference"/>
<path d="M334.943 350L331.323 339H333.883L335.983 345.68C336.103 346.08 336.216 346.493 336.323 346.92C336.443 347.347 336.53 347.687 336.583 347.94C336.65 347.687 336.736 347.347 336.843 346.92C336.95 346.493 337.056 346.087 337.163 345.7L339.223 339H341.763L338.163 350H334.943Z" fill="white" style="mix-blend-mode:difference"/>
<path d="M347.955 350.2C347.022 350.2 346.208 350.02 345.515 349.66C344.822 349.3 344.282 348.8 343.895 348.16C343.522 347.507 343.335 346.747 343.335 345.88V343.12C343.335 342.253 343.522 341.5 343.895 340.86C344.282 340.207 344.822 339.7 345.515 339.34C346.208 338.98 347.022 338.8 347.955 338.8C348.875 338.8 349.675 338.98 350.355 339.34C351.048 339.7 351.582 340.207 351.955 340.86C352.342 341.5 352.535 342.253 352.535 343.12V345.1H345.755V345.88C345.755 346.653 345.942 347.24 346.315 347.64C346.688 348.027 347.242 348.22 347.975 348.22C348.535 348.22 348.988 348.127 349.335 347.94C349.682 347.74 349.902 347.453 349.995 347.08H352.455C352.268 348.027 351.762 348.787 350.935 349.36C350.122 349.92 349.128 350.2 347.955 350.2ZM350.115 343.7V343.1C350.115 342.34 349.935 341.76 349.575 341.36C349.215 340.947 348.675 340.74 347.955 340.74C347.235 340.74 346.688 340.947 346.315 341.36C345.942 341.773 345.755 342.36 345.755 343.12V343.54L350.295 343.5L350.115 343.7Z" fill="white" style="mix-blend-mode:difference"/>
<path d="M354.867 350V339H357.307V341.1H357.987L357.307 341.68C357.307 340.773 357.567 340.067 358.087 339.56C358.621 339.053 359.347 338.8 360.267 338.8C361.347 338.8 362.207 339.16 362.847 339.88C363.501 340.6 363.827 341.567 363.827 342.78V350H361.327V343.04C361.327 342.373 361.154 341.86 360.807 341.5C360.461 341.14 359.974 340.96 359.347 340.96C358.734 340.96 358.247 341.147 357.887 341.52C357.541 341.893 357.367 342.427 357.367 343.12V350H354.867Z" fill="white" style="mix-blend-mode:difference"/>
<path d="M371.919 350C370.866 350 370.039 349.707 369.439 349.12C368.853 348.533 368.559 347.727 368.559 346.7V341.26H365.579V339H368.559V335.9H371.079V339H375.299V341.26H371.079V346.7C371.079 347.393 371.419 347.74 372.099 347.74H375.099V350H371.919Z" fill="white" style="mix-blend-mode:difference"/>
<path d="M382.112 350.2C380.712 350.2 379.612 349.813 378.812 349.04C378.012 348.253 377.612 347.187 377.612 345.84V339H380.112V345.82C380.112 346.527 380.285 347.073 380.632 347.46C380.978 347.833 381.472 348.02 382.112 348.02C382.738 348.02 383.225 347.833 383.572 347.46C383.932 347.073 384.112 346.527 384.112 345.82V339H386.612V345.84C386.612 347.187 386.205 348.253 385.392 349.04C384.578 349.813 383.485 350.2 382.112 350.2Z" fill="white" style="mix-blend-mode:difference"/>
<path d="M389.384 350V339H391.744V341.1H392.364L391.624 342.38C391.624 341.193 391.891 340.3 392.424 339.7C392.957 339.1 393.744 338.8 394.784 338.8C395.971 338.8 396.904 339.167 397.584 339.9C398.264 340.633 398.604 341.647 398.604 342.94V343.74H395.984V343.12C395.984 342.413 395.797 341.867 395.424 341.48C395.064 341.093 394.564 340.9 393.924 340.9C393.271 340.9 392.764 341.093 392.404 341.48C392.057 341.867 391.884 342.413 391.884 343.12V350H389.384Z" fill="white" style="mix-blend-mode:difference"/>
<path d="M404.916 350.2C403.983 350.2 403.169 350.02 402.476 349.66C401.783 349.3 401.243 348.8 400.856 348.16C400.483 347.507 400.296 346.747 400.296 345.88V343.12C400.296 342.253 400.483 341.5 400.856 340.86C401.243 340.207 401.783 339.7 402.476 339.34C403.169 338.98 403.983 338.8 404.916 338.8C405.836 338.8 406.636 338.98 407.316 339.34C408.009 339.7 408.543 340.207 408.916 340.86C409.303 341.5 409.496 342.253 409.496 343.12V345.1H402.716V345.88C402.716 346.653 402.903 347.24 403.276 347.64C403.649 348.027 404.203 348.22 404.936 348.22C405.496 348.22 405.949 348.127 406.296 347.94C406.643 347.74 406.863 347.453 406.956 347.08H409.416C409.229 348.027 408.723 348.787 407.896 349.36C407.083 349.92 406.089 350.2 404.916 350.2ZM407.076 343.7V343.1C407.076 342.34 406.896 341.76 406.536 341.36C406.176 340.947 405.636 340.74 404.916 340.74C404.196 340.74 403.649 340.947 403.276 341.36C402.903 341.773 402.716 342.36 402.716 343.12V343.54L407.256 343.5L407.076 343.7Z" fill="white" style="mix-blend-mode:difference"/>
<path d="M415.868 350.18C415.028 350.18 414.295 350.047 413.668 349.78C413.042 349.513 412.548 349.147 412.188 348.68C411.842 348.2 411.655 347.64 411.628 347H414.128C414.155 347.347 414.322 347.627 414.628 347.84C414.948 348.053 415.362 348.16 415.868 348.16H416.748C417.362 348.16 417.822 348.04 418.128 347.8C418.435 347.56 418.588 347.233 418.588 346.82C418.588 346.433 418.448 346.133 418.168 345.92C417.902 345.693 417.482 345.547 416.908 345.48L415.548 345.28C414.295 345.107 413.375 344.773 412.788 344.28C412.202 343.787 411.908 343.047 411.908 342.06C411.908 341.033 412.255 340.24 412.948 339.68C413.642 339.107 414.662 338.82 416.008 338.82H416.768C417.995 338.82 418.975 339.093 419.708 339.64C420.442 340.187 420.835 340.92 420.888 341.84H418.388C418.348 341.547 418.182 341.307 417.888 341.12C417.608 340.933 417.235 340.84 416.768 340.84H416.008C415.435 340.84 415.015 340.947 414.748 341.16C414.495 341.36 414.368 341.66 414.368 342.06C414.368 342.433 414.482 342.713 414.708 342.9C414.935 343.073 415.302 343.2 415.808 343.28L417.228 343.48C418.535 343.667 419.495 344.02 420.108 344.54C420.735 345.047 421.048 345.8 421.048 346.8C421.048 347.867 420.682 348.7 419.948 349.3C419.228 349.887 418.162 350.18 416.748 350.18H415.868Z" fill="white" style="mix-blend-mode:difference"/>
<path d="M427.74 350.2C426.807 350.2 425.987 350.027 425.28 349.68C424.587 349.32 424.047 348.82 423.66 348.18C423.274 347.527 423.08 346.76 423.08 345.88V343.12C423.08 342.227 423.274 341.46 423.66 340.82C424.047 340.18 424.587 339.687 425.28 339.34C425.987 338.98 426.807 338.8 427.74 338.8C429.127 338.8 430.234 339.16 431.06 339.88C431.887 340.587 432.32 341.553 432.36 342.78H429.86C429.82 342.207 429.614 341.767 429.24 341.46C428.88 341.14 428.38 340.98 427.74 340.98C427.074 340.98 426.547 341.167 426.16 341.54C425.774 341.9 425.58 342.42 425.58 343.1V345.88C425.58 346.56 425.774 347.087 426.16 347.46C426.547 347.833 427.074 348.02 427.74 348.02C428.38 348.02 428.88 347.867 429.24 347.56C429.614 347.24 429.82 346.793 429.86 346.22H432.36C432.32 347.447 431.887 348.42 431.06 349.14C430.234 349.847 429.127 350.2 427.74 350.2Z" fill="white" style="mix-blend-mode:difference"/>
<path d="M439.093 350.2C438.159 350.2 437.346 350.02 436.653 349.66C435.959 349.3 435.419 348.8 435.033 348.16C434.659 347.507 434.473 346.747 434.473 345.88V343.12C434.473 342.253 434.659 341.5 435.033 340.86C435.419 340.207 435.959 339.7 436.653 339.34C437.346 338.98 438.159 338.8 439.093 338.8C440.013 338.8 440.813 338.98 441.493 339.34C442.186 339.7 442.719 340.207 443.093 340.86C443.479 341.5 443.673 342.253 443.673 343.12V345.1H436.893V345.88C436.893 346.653 437.079 347.24 437.453 347.64C437.826 348.027 438.379 348.22 439.113 348.22C439.673 348.22 440.126 348.127 440.473 347.94C440.819 347.74 441.039 347.453 441.133 347.08H443.593C443.406 348.027 442.899 348.787 442.073 349.36C441.259 349.92 440.266 350.2 439.093 350.2ZM441.253 343.7V343.1C441.253 342.34 441.073 341.76 440.713 341.36C440.353 340.947 439.813 340.74 439.093 340.74C438.373 340.74 437.826 340.947 437.453 341.36C437.079 341.773 436.893 342.36 436.893 343.12V343.54L441.433 343.5L441.253 343.7Z" fill="white" style="mix-blend-mode:difference"/>
<path d="M446.005 350V339H448.445V341.1H449.125L448.445 341.68C448.445 340.773 448.705 340.067 449.225 339.56C449.758 339.053 450.485 338.8 451.405 338.8C452.485 338.8 453.345 339.16 453.985 339.88C454.638 340.6 454.965 341.567 454.965 342.78V350H452.465V343.04C452.465 342.373 452.291 341.86 451.945 341.5C451.598 341.14 451.111 340.96 450.485 340.96C449.871 340.96 449.385 341.147 449.025 341.52C448.678 341.893 448.505 342.427 448.505 343.12V350H446.005Z" fill="white" style="mix-blend-mode:difference"/>
<path d="M461.917 350.2C460.984 350.2 460.164 350.027 459.457 349.68C458.764 349.32 458.224 348.82 457.837 348.18C457.45 347.527 457.257 346.76 457.257 345.88V343.12C457.257 342.227 457.45 341.46 457.837 340.82C458.224 340.18 458.764 339.687 459.457 339.34C460.164 338.98 460.984 338.8 461.917 338.8C463.304 338.8 464.41 339.16 465.237 339.88C466.064 340.587 466.497 341.553 466.537 342.78H464.037C463.997 342.207 463.79 341.767 463.417 341.46C463.057 341.14 462.557 340.98 461.917 340.98C461.25 340.98 460.724 341.167 460.337 341.54C459.95 341.9 459.757 342.42 459.757 343.1V345.88C459.757 346.56 459.95 347.087 460.337 347.46C460.724 347.833 461.25 348.02 461.917 348.02C462.557 348.02 463.057 347.867 463.417 347.56C463.79 347.24 463.997 346.793 464.037 346.22H466.537C466.497 347.447 466.064 348.42 465.237 349.14C464.41 349.847 463.304 350.2 461.917 350.2Z" fill="white" style="mix-blend-mode:difference"/>
<path d="M473.269 350.2C472.336 350.2 471.522 350.02 470.829 349.66C470.136 349.3 469.596 348.8 469.209 348.16C468.836 347.507 468.649 346.747 468.649 345.88V343.12C468.649 342.253 468.836 341.5 469.209 340.86C469.596 340.207 470.136 339.7 470.829 339.34C471.522 338.98 472.336 338.8 473.269 338.8C474.189 338.8 474.989 338.98 475.669 339.34C476.363 339.7 476.896 340.207 477.269 340.86C477.656 341.5 477.849 342.253 477.849 343.12V345.1H471.069V345.88C471.069 346.653 471.256 347.24 471.629 347.64C472.003 348.027 472.556 348.22 473.289 348.22C473.849 348.22 474.302 348.127 474.649 347.94C474.996 347.74 475.216 347.453 475.309 347.08H477.769C477.582 348.027 477.076 348.787 476.249 349.36C475.436 349.92 474.443 350.2 473.269 350.2ZM475.429 343.7V343.1C475.429 342.34 475.249 341.76 474.889 341.36C474.529 340.947 473.989 340.74 473.269 340.74C472.549 340.74 472.003 340.947 471.629 341.36C471.256 341.773 471.069 342.36 471.069 343.12V343.54L475.609 343.5L475.429 343.7Z" fill="white" style="mix-blend-mode:difference"/>
<path d="M0.0130033 13.9708C0.0130033 12.0877 0.766252 10.4503 2.29872 9.07019C3.87015 7.69007 5.67534 7.00002 7.72729 7.00002H164.987C182.234 7.00002 197.623 10.5322 211.13 17.6199C224.636 24.6959 235.312 34.3684 243.156 46.5907C251.026 58.7895 254.987 72.6725 254.987 88.2515V103.608C254.987 119.187 251.026 133.07 243.156 145.269C235.312 157.48 224.636 167.14 211.13 174.251C197.623 181.328 182.234 184.871 164.987 184.871H89.4805V146.474H164.987C179.13 146.474 190.571 142.532 199.312 134.649C208.065 126.743 212.454 116.392 212.454 103.608V88.2515C212.454 75.4796 208.065 65.1404 199.312 57.2105C190.571 49.3041 179.13 45.3392 164.987 45.3392H50.2597C48.1558 45.3392 46.3507 46.041 44.8312 47.4679C43.2857 48.848 42.5325 50.462 42.5325 52.31C42.5325 106.373 42.5 160.437 42.5 214.5C42.5 216.36 43.23 218.251 44.7687 219.678C46.2943 221.059 48.1067 221.749 50.1669 221.749H174.496C176.557 221.749 178.343 222.439 179.882 223.807C181.42 225.199 182.19 226.813 182.19 228.661V253C182.19 254.86 181.42 256.474 179.882 257.854C178.343 259.234 176.557 259.924 174.496 259.924H7.71105C5.65085 259.924 3.85143 259.234 2.3128 257.854C0.774161 256.474 0 253.86 0 252C-9.84983e-09 172.657 0.00694862 93.3139 0.0130033 13.9708Z" fill="white" style="mix-blend-mode:difference"/>
<path d="M285.763 243.463H334.091V264.854H263.358V147.06H285.763V243.463Z" fill="white" style="mix-blend-mode:difference"/>
<path d="M415.42 147.06H437.825V218.597C437.825 228.341 435.971 236.781 432.275 243.918C428.569 251.035 423.33 256.537 416.539 260.427C409.747 264.295 401.796 266.219 392.685 266.219C383.595 266.219 375.664 264.295 368.873 260.427C362.081 256.537 356.822 251.035 353.094 243.918C349.388 236.781 347.545 228.341 347.545 218.597V147.06H369.949V218.059C369.949 225.92 371.958 232.157 375.996 236.76C380.054 241.374 385.614 243.67 392.685 243.67C399.642 243.67 405.16 241.374 409.25 236.76C413.36 232.157 415.42 225.92 415.42 218.059V147.06Z" fill="white" style="mix-blend-mode:difference"/>
<path d="M508.419 243.67C514.932 243.67 520.595 242.325 525.399 239.615C530.223 236.916 534.106 233.223 537.036 228.527L557.245 238.622C552.41 246.928 545.784 253.6 537.367 258.648C528.939 263.695 519.29 266.219 508.419 266.219C499.992 266.219 492.269 264.709 485.228 261.668C478.209 258.637 472.183 254.376 467.131 248.883C462.079 243.37 458.165 236.967 455.411 229.685C452.678 222.403 451.311 214.563 451.311 206.143C451.311 197.734 452.678 189.883 455.411 182.601C458.165 175.298 462.079 168.896 467.131 163.403C472.183 157.89 478.209 153.628 485.228 150.618C492.269 147.588 499.992 146.067 508.419 146.067C519.29 146.067 528.939 148.57 537.367 153.556C545.784 158.552 552.41 165.255 557.245 173.664L537.036 183.759C534.106 179.043 530.223 175.319 525.399 172.588C520.595 169.837 514.932 168.451 508.419 168.451C501.348 168.451 495.25 170.106 490.115 173.416C485.001 176.726 481.066 181.215 478.312 186.863C475.579 192.521 474.213 198.944 474.213 206.143C474.213 213.208 475.579 219.58 478.312 225.258C481.066 230.916 485.001 235.395 490.115 238.705C495.25 242.015 501.348 243.67 508.419 243.67Z" fill="white" style="mix-blend-mode:difference"/>
<path d="M646.015 264.854L636.739 238.25H596.817L587.747 264.854H562.32L605.431 147.06H628.332L671.442 264.854H646.015ZM604.395 216.901H629.326L616.861 180.698L604.395 216.901Z" fill="white" style="mix-blend-mode:difference"/>
<path d="M728.914 147.06H753.844L711.23 264.854H688.329L645.716 147.06H670.646L699.759 231.216L728.914 147.06Z" fill="white" style="mix-blend-mode:difference"/>
<path d="M764.794 147.06H787.198V264.854H764.794V147.06Z" fill="white" style="mix-blend-mode:difference"/>
<path d="M267.022 135.065C265.283 135.065 264.413 134.196 264.413 132.458V30.7593C264.413 29.0526 265.283 28.1941 267.022 28.1941H276.009C277.717 28.1941 278.576 29.0526 278.576 30.7593V31.0076C278.576 32.0626 279.042 32.5798 279.984 32.5798C280.253 32.5798 280.523 32.5178 280.771 32.373C281.019 32.2385 281.32 32.1247 281.682 32.042C284.084 30.8628 286.631 29.9215 289.343 29.2285C292.046 28.5458 294.851 28.1941 297.75 28.1941H301.891C308.238 28.1941 313.911 29.6629 318.912 32.5798C323.933 35.476 327.909 39.4377 330.839 44.4543C333.758 49.4814 335.229 55.16 335.229 61.5007V76.0232C335.229 82.3742 333.758 88.0528 330.839 93.0695C327.909 98.0965 323.933 102.068 318.912 104.985C313.911 107.882 308.238 109.33 301.891 109.33H297.75C294.851 109.33 292.046 108.988 289.343 108.295C286.631 107.613 284.084 106.671 281.682 105.482C281.154 105.213 280.688 105.068 280.274 105.068C279.135 105.068 278.576 105.761 278.576 107.137V132.458C278.576 134.196 277.717 135.065 276.009 135.065H267.022ZM297.75 95.1796H301.891C307.461 95.1796 312.048 93.3902 315.64 89.8009C319.254 86.191 321.065 81.5984 321.065 76.0232V61.5007C321.065 55.9358 319.254 51.3536 315.64 47.7643C312.048 44.1544 307.461 42.3442 301.891 42.3442H297.75C292.17 42.3442 287.573 44.1544 283.96 47.7643C280.367 51.3536 278.576 55.9358 278.576 61.5007V76.0232C278.576 81.5984 280.367 86.191 283.96 89.8009C287.573 93.3902 292.17 95.1796 297.75 95.1796Z" fill="white" style="mix-blend-mode:difference"/>
<path d="M342.417 109.33C340.678 109.33 339.808 108.482 339.808 106.765V30.7593C339.808 29.0526 340.678 28.1941 342.417 28.1941H351.404C353.112 28.1941 353.971 29.0526 353.971 30.7593V31.5455C353.971 32.9005 354.489 33.5728 355.545 33.5728C355.959 33.5728 356.466 33.4073 357.077 33.0763C361.798 29.8284 367.109 28.1941 373.021 28.1941H377.162C378.871 28.1941 379.73 29.0526 379.73 30.7593V39.779C379.73 41.4961 378.871 42.3442 377.162 42.3442H373.021C367.803 42.3442 363.455 43.8958 359.976 46.9782C356.497 50.0709 354.489 54.0946 353.971 59.0596V106.765C353.971 108.482 353.112 109.33 351.404 109.33H342.417Z" fill="white" style="mix-blend-mode:difference"/>
<path d="M415.113 109.33C408.756 109.33 403.072 107.882 398.051 104.985C393.019 102.068 389.043 98.0965 386.124 93.0695C383.225 88.0528 381.776 82.3742 381.776 76.0232V61.5007C381.776 55.16 383.225 49.4814 386.124 44.4543C389.043 39.4377 393.019 35.476 398.051 32.5798C403.072 29.6629 408.756 28.1941 415.113 28.1941H419.212C425.559 28.1941 431.243 29.6629 436.275 32.5798C441.296 35.476 445.261 39.4377 448.16 44.4543C451.079 49.4814 452.55 55.16 452.55 61.5007V76.0232C452.55 82.3742 451.079 88.0528 448.16 93.0695C445.261 98.0965 441.296 102.068 436.275 104.985C431.243 107.882 425.559 109.33 419.212 109.33H415.113ZM415.113 95.1796H419.212C424.782 95.1796 429.369 93.3902 432.961 89.8009C436.575 86.191 438.387 81.5984 438.387 76.0232V61.5007C438.387 55.9358 436.575 51.3536 432.961 47.7643C429.369 44.1544 424.782 42.3442 419.212 42.3442H415.113C409.532 42.3442 404.936 44.1544 401.322 47.7643C397.73 51.3536 395.939 55.9358 395.939 61.5007V76.0232C395.939 81.5984 397.73 86.191 401.322 89.8009C404.936 93.3902 409.532 95.1796 415.113 95.1796Z" fill="white" style="mix-blend-mode:difference"/>
<path d="M457.146 18.8021C456.483 18.8021 455.883 18.5538 455.365 18.0573C454.837 17.5402 454.578 16.9299 454.578 16.2369V2.58323C454.578 1.90055 454.837 1.30062 455.365 0.804123C455.883 0.286939 456.483 0.0180054 457.146 0.0180054H471.309C471.992 0.0180054 472.593 0.286939 473.09 0.804123C473.607 1.30062 473.876 1.90055 473.876 2.58323V16.2369C473.876 16.9299 473.607 17.5402 473.09 18.0573C472.593 18.5538 471.992 18.8021 471.309 18.8021H457.146ZM447.124 134.279H446.875C446.109 134.279 445.488 133.999 445.012 133.451C444.546 132.893 444.308 132.272 444.308 131.589V122.57C444.308 121.101 445.084 120.294 446.627 120.129C449.691 119.601 452.187 118.184 454.123 115.867C456.048 113.571 457.021 110.788 457.021 107.509V30.7593C457.021 30.0767 457.28 29.4767 457.808 28.9802C458.326 28.4631 458.926 28.1941 459.589 28.1941H468.617C469.3 28.1941 469.901 28.4631 470.398 28.9802C470.915 29.4767 471.185 30.0767 471.185 30.7593V107.509C471.185 112.412 470.149 116.788 468.079 120.625C466.029 124.483 463.202 127.617 459.589 130.017C455.997 132.417 451.845 133.834 447.124 134.279Z" fill="white" style="mix-blend-mode:difference"/>
<path d="M509.162 109.33C502.805 109.33 497.121 107.882 492.1 104.985C487.068 102.068 483.093 98.0965 480.173 93.0695C477.274 88.0528 475.825 82.3742 475.825 76.0232V61.5007C475.825 55.16 477.274 49.4814 480.173 44.4543C483.093 39.4377 487.068 35.476 492.1 32.5798C497.121 29.6629 502.805 28.1941 509.162 28.1941H513.262C519.608 28.1941 525.292 29.6629 530.324 32.5798C535.345 35.476 539.31 39.4377 542.209 44.4543C545.129 49.4814 546.599 55.16 546.599 61.5007V72.5477C546.599 74.2647 545.74 75.1129 544.031 75.1129H492.555C490.837 75.1129 490.029 76.0232 490.112 77.8437C490.609 83.2224 492.607 87.4632 496.117 90.5457C499.647 93.6384 503.996 95.1796 509.162 95.1796H513.262C516.792 95.1796 519.95 94.4556 522.745 92.9868C525.53 91.5283 527.735 89.5113 529.371 86.9461C530.054 85.7669 531.079 85.167 532.436 85.167H542.375C543.917 85.167 544.694 85.8083 544.694 87.0702C544.694 87.515 544.632 87.8563 544.528 88.1046C542.23 94.3728 538.285 99.4722 532.684 103.413C527.104 107.364 520.633 109.33 513.262 109.33H509.162ZM492.68 60.9628H529.744C531.618 60.9628 532.436 60.0733 532.187 58.2735C531.576 53.474 529.537 49.6262 526.058 46.7299C522.6 43.813 518.335 42.3442 513.262 42.3442H509.162C504.078 42.3442 499.823 43.813 496.407 46.7299C492.98 49.6262 490.919 53.474 490.236 58.2735V58.8113C490.236 60.2491 491.044 60.9628 492.68 60.9628Z" fill="white" style="mix-blend-mode:difference"/>
<path d="M582.627 109.33C576.27 109.33 570.586 107.882 565.565 104.985C560.533 102.068 556.558 98.0965 553.638 93.0695C550.739 88.0528 549.29 82.3742 549.29 76.0232V61.5007C549.29 55.16 550.739 49.4814 553.638 44.4543C556.558 39.4377 560.533 35.476 565.565 32.5798C570.586 29.6629 576.27 28.1941 582.627 28.1941H586.727C592.825 28.1941 598.385 29.5388 603.416 32.2075C608.437 34.8554 612.444 38.4757 615.426 43.0476C618.428 47.6298 619.94 52.8844 619.94 58.8113C619.94 60.6111 619.08 61.5007 617.372 61.5007H608.344C607.651 61.5007 607.04 61.2731 606.522 60.7973C606.025 60.3318 605.777 59.7526 605.777 59.0596C605.777 55.7289 604.917 52.812 603.209 50.3295C601.49 47.8264 599.202 45.8611 596.335 44.4543C593.456 43.0476 590.257 42.3442 586.727 42.3442H582.627C577.047 42.3442 572.45 44.1544 568.837 47.7643C565.244 51.3536 563.453 55.9358 563.453 61.5007V76.0232C563.453 81.5984 565.244 86.191 568.837 89.8009C572.45 93.3902 577.047 95.1796 582.627 95.1796H586.727C590.257 95.1796 593.456 94.4762 596.335 93.0695C599.202 91.6628 601.49 89.6975 603.209 87.1529C604.917 84.6187 605.777 81.7225 605.777 78.4643C605.777 77.7816 606.025 77.2023 606.522 76.7265C607.04 76.2611 607.651 76.0232 608.344 76.0232H617.372C619.08 76.0232 619.94 76.9231 619.94 78.7125C619.94 84.6498 618.428 89.925 615.426 94.559C612.444 99.1723 608.437 102.782 603.416 105.399C598.385 108.026 592.825 109.33 586.727 109.33H582.627Z" fill="white" style="mix-blend-mode:difference"/>
<path d="M655.711 109.33C651.072 109.33 646.973 108.326 643.411 106.309C639.85 104.303 637.054 101.5 635.046 97.9103C633.027 94.3004 632.023 90.2147 632.023 85.6635V45.0336C632.023 44.3509 631.753 43.751 631.236 43.2545C630.708 42.7373 630.118 42.4684 629.455 42.4684H623.119C622.425 42.4684 621.814 42.2201 621.297 41.7236C620.8 41.2064 620.551 40.5962 620.551 39.9031V30.8835C620.551 30.2008 620.8 29.6009 621.297 29.1044C621.814 28.5872 622.425 28.3182 623.119 28.3182H629.455C630.118 28.3182 630.708 28.07 631.236 27.5735C631.753 27.0563 632.023 26.446 632.023 25.753V2.58323C632.023 1.90055 632.271 1.30062 632.768 0.804123C633.286 0.286939 633.897 0.0180054 634.59 0.0180054H643.577C644.26 0.0180054 644.871 0.286939 645.399 0.804123C645.917 1.30062 646.186 1.90055 646.186 2.58323V25.6289C646.186 26.3219 646.434 26.9322 646.931 27.4494C647.449 27.9459 648.06 28.1941 648.753 28.1941H660.473C661.156 28.1941 661.757 28.4631 662.254 28.9802C662.771 29.4767 663.041 30.0767 663.041 30.7593V39.9031C663.041 40.5962 662.771 41.2064 662.254 41.7236C661.757 42.2201 661.156 42.4684 660.473 42.4684H648.753C648.06 42.4684 647.449 42.7373 646.931 43.2545C646.434 43.751 646.186 44.3509 646.186 45.0336V84.6291C646.186 87.7218 647.159 90.256 649.126 92.242C651.114 94.2073 653.65 95.1796 656.746 95.1796H660.473C661.156 95.1796 661.757 95.4485 662.254 95.9657C662.771 96.4622 663.041 97.0622 663.041 97.7448V106.765C663.041 107.458 662.771 108.068 662.254 108.585C661.757 109.081 661.156 109.33 660.473 109.33H655.711Z" fill="white" style="mix-blend-mode:difference"/>
<path d="M673.449 51.3225C672.755 51.3225 672.144 51.0743 671.627 50.5778C671.13 50.0606 670.881 49.4503 670.881 48.7573V30.7593C670.881 30.0767 671.13 29.4767 671.627 28.9802C672.144 28.4631 672.755 28.1941 673.449 28.1941H691.463C692.146 28.1941 692.747 28.4631 693.244 28.9802C693.762 29.4767 694.031 30.0767 694.031 30.7593V48.7573C694.031 49.4503 693.762 50.0606 693.244 50.5778C692.747 51.0743 692.146 51.3225 691.463 51.3225H673.449ZM673.449 109.33C672.755 109.33 672.144 109.081 671.627 108.585C671.13 108.068 670.881 107.458 670.881 106.765V88.7665C670.881 88.0839 671.13 87.4839 671.627 86.9874C672.144 86.4703 672.755 86.2013 673.449 86.2013H691.463C692.146 86.2013 692.747 86.4703 693.244 86.9874C693.762 87.4839 694.031 88.0839 694.031 88.7665V106.765C694.031 107.458 693.762 108.068 693.244 108.585C692.747 109.081 692.146 109.33 691.463 109.33H673.449Z" fill="white" style="mix-blend-mode:difference"/>
<path d="M711.389 9.4073L750.193 126.249H735.201L696.356 9.4073H711.389Z" fill="white" style="mix-blend-mode:difference"/>
<path d="M744.894 9.4073L783.697 126.249H768.706L729.861 9.4073H744.894Z" fill="white" style="mix-blend-mode:difference"/>
</svg>
